#!OML:ASF F:\VICON\USERDATA\INSTALL\rory3\rory3.ASF
:FULLY-SPECIFIED
:DEGREES
63
root -0.332349 18.7656 -13.7427 4.93807 -3.95117 1.4839
lowerback 10.4174 1.04667 -2.86389
upperback 1.31543 0.994411 -1.3811
thorax -4.49404 0.528356 0.0334851
lowerneck -10.8766 -3.35276 -8.18559
upperneck 9.19325 -4.14214 7.86891
head 4.87332 -1.83813 3.47497
rclavicle -8.05078e-015 5.1684e-015
rhumerus -33.0668 3.03489 -83.2513
rradius 32.2496
rwrist 14.837
rhand -24.3662 -0.431407
rfingers 7.12502
rthumb 2.12371 -30.4006
lclavicle -8.05078e-015 5.1684e-015
lhumerus -33.9102 9.89537 78.6817
lradius 30.0729
lwrist -1.74831
lhand -19.0403 25.8127
lfingers 7.12502
lthumb 7.26623 55.6679
rfemur -13.2671 19.198 17.381
rtibia 25.786
rfoot -16.4369 -16.5983
rtoes -1.45038
lfemur -13.2696 -5.30792 -19.7963
ltibia 24.5813
lfoot -13.0898 10.7906
ltoes -9.26109
64
root -0.327432 18.7514 -13.7624 5.03176 -4.08873 1.35991
lowerback 10.6556 1.10021 -2.75717
upperback 1.46212 1.07375 -1.33227
thorax -4.47386 0.564648 0.010642
lowerneck -10.8925 -3.30551 -8.19375
upperneck 8.78264 -4.05957 7.90761
head 4.74394 -1.79608 3.49388
rclavicle 1.59028e-014 -7.55382e-015
rhumerus -32.9542 3.13346 -83.1719
rradius 32.4118
rwrist 14.6513
rhand -24.7647 -0.811867
rfingers 7.12502
rthumb 1.73882 -30.7845
lclavicle 1.59028e-014 -7.55382e-015
lhumerus -33.7847 9.39104 78.9749
lradius 30.3977
lwrist -1.42846
lhand -19.1086 25.579
lfingers 7.12502
lthumb 7.2003 55.4365
rfemur -13.7257 19.2063 17.4341
rtibia 26.2823
rfoot -16.5582 -16.4877
rtoes -1.80844
lfemur -13.7019 -5.06996 -19.6567
ltibia 25.0934
lfoot -13.3138 10.644
ltoes -9.0318
65
root -0.323312 18.7397 -13.7827 5.05953 -4.28095 1.3584
lowerback 11.0558 1.19893 -2.76667
upperback 1.56475 1.18892 -1.34257
thorax -4.59121 0.621412 -0.0182127
lowerneck -10.8443 -3.2788 -8.1047
upperneck 8.38375 -4.01489 7.85569
head 4.60694 -1.7761 3.46588
rclavicle -4.27387e-015 3.45885e-014
rhumerus -32.9135 3.06817 -83.0854
rradius 32.5227
rwrist 14.6061
rhand -25.0473 -1.03363
rfingers 7.12502
rthumb 1.46591 -31.0083
lclavicle -4.27387e-015 3.45885e-014
lhumerus -33.8197 8.57363 79.3015
lradius 30.9119
lwrist -0.88244
lhand -19.2296 25.8201
lfingers 7.12502
lthumb 7.08354 55.6815
rfemur -14.147 19.3961 17.3515
rtibia 26.787
rfoot -16.7449 -16.4259
rtoes -1.73896
lfemur -14.0573 -4.76488 -19.6649
ltibia 25.6005
lfoot -13.5442 10.4929
ltoes -8.65376
66
root -0.318013 18.7268 -13.8041 5.11983 -4.4351 1.41852
lowerback 11.4258 1.26143 -2.80234
upperback 1.66446 1.25175 -1.39344
thorax -4.69305 0.65235 -0.0672074
lowerneck -10.762 -3.28773 -7.95982
upperneck 7.92516 -4.02037 7.74692
head 4.44813 -1.78318 3.40738
rclavicle 1.49089e-015 9.93923e-015
rhumerus -32.9286 3.08626 -83.0659
rradius 32.7127
rwrist 14.5958
rhand -25.3737 -1.19983
rfingers 7.12502
rthumb 1.15062 -31.1765
lclavicle 1.49089e-015 9.93923e-015
lhumerus -33.897 7.7657 79.543
lradius 31.4948
lwrist -0.331384
lhand -19.3105 25.8551
lfingers 7.12502
lthumb 7.00542 55.7191
rfemur -14.6302 19.4351 17.1882
rtibia 27.3181
rfoot -16.8916 -16.2812
rtoes -1.50892
lfemur -14.4587 -4.50238 -19.7417
ltibia 26.1112
lfoot -13.7058 10.366
ltoes -8.65953
67
root -0.311683 18.7123 -13.8257 5.24984 -4.54376 1.49416
lowerback 11.6882 1.29785 -2.85582
upperback 1.78236 1.28362 -1.42088
thorax -4.716 0.667789 -0.074719
lowerneck -10.797 -3.30436 -8.0085
upperneck 7.54145 -4.02225 7.82478
head 4.33953 -1.78137 3.43872
rclavicle -1.19271e-015 7.15625e-015
rhumerus -32.8877 3.29943 -83.0239
rradius 32.906
rwrist 14.3524
rhand -25.7161 -1.06111
rfingers 7.12502
rthumb 0.819968 -31.0393
lclavicle -1.19271e-015 7.15625e-015
lhumerus -33.9088 7.17464 79.7635
lradius 32.0009
lwrist 0.025657
lhand -19.4251 25.7227
lfingers 7.12502
lthumb 6.8948 55.5905
rfemur -15.2406 19.3406 16.9852
rtibia 27.9365
rfoot -17.0309 -16.1085
rtoes -1.51173
lfemur -14.9499 -4.35234 -19.8277
ltibia 26.608
lfoot -13.8608 10.2648
ltoes -8.33191
68
root -0.308506 18.6976 -13.8575 5.49829 -4.40781 1.51903
lowerback 11.9925 1.24875 -2.84946
upperback 1.83557 1.20766 -1.42463
thorax -4.82682 0.63056 -0.0760276
lowerneck -10.8379 -3.2691 -8.02099
upperneck 7.11204 -3.9578 7.91413
head 4.21228 -1.74533 3.47276
rclavicle 9.0447e-015 4.77083e-015
rhumerus -32.8117 3.45741 -82.9967
rradius 33.0339
rwrist 14.0995
rhand -25.9687 -0.858858
rfingers 7.12502
rthumb 0.575955 -30.8378
lclavicle 9.0447e-015 4.77083e-015
lhumerus -33.9891 6.49829 79.9963
lradius 32.5698
lwrist 0.42882
lhand -19.6617 25.6867
lfingers 7.12502
lthumb 6.66643 55.5618
rfemur -16.0126 19.1042 16.8382
rtibia 28.6227
rfoot -17.1921 -16.0328
rtoes -1.8128
lfemur -15.6604 -4.2769 -19.8149
ltibia 27.1515
lfoot -13.9355 10.017
ltoes -8.31818
